<?xml version="1.0" encoding="utf-8"?>
<!-- Generator: Adobe Illustrator 21.0.0, SVG Export Plug-In . SVG Version: 6.00 Build 0)  -->
<svg version="1.1" id="Layer_1" xmlns="http://www.w3.org/2000/svg" xmlns:xlink="http://www.w3.org/1999/xlink" x="0px" y="0px"
	 viewBox="0 0 1000 800" style="enable-background:new 0 0 1000 800;" xml:space="preserve">
<style type="text/css">
	.st0{fill:#80AF3F;}
	.st1{fill:#FFFFFF;}
	.st2{fill:#CB0100;}
</style>
<path d="M945.6,146.5C932.7,96,902.3,59.6,853.3,40.4C812,24.3,770.1,26.3,729,40.5c-72.1,24.9-123.4,73.8-157.2,141.3
	c-16.4,32.9-25.7,67-26.2,102.4c-0.4,25.1,3.6,43.5,4.8,48.7c0.9,3.9,1.9,7.7,3,11.3c-0.4,2.8-0.8,5.6-1.3,8.4
	C546.4,388.5,539.3,424,523,457c-7.3,14.8-14.7,29.4-23,43.6c-8.3-14.2-15.7-28.9-23-43.6c-16.3-33-23.4-68.5-29.2-104.4
	c-0.5-2.8-0.9-5.6-1.3-8.4c1.1-3.6,2.1-7.4,3-11.3c1.2-5.2,5.2-23.6,4.8-48.7c-0.5-35.4-9.8-69.5-26.2-102.4
	c-33.7-67.5-85-116.4-157.2-141.3c-41.1-14.2-83-16.2-124.3-0.1C97.7,59.6,67.3,96,54.4,146.5c-14.6,57.1-3.9,111.5,23,162.7
	c33.3,63.4,82.8,109.4,150.8,134.1c20.8,7.6,42.3,11.4,64.3,11.9c2.9,0,6.8,0,11.5-0.2c21.2,6.5,42.5,13.1,63.1,21.4
	c30.7,12.3,57.5,30.7,83.6,50.4c3.1,2.4,6.1,4.9,9.3,7.4c0.9,0.7,1.9,1.3,2.6,1.9c-45.2,52.7-90.5,105.4-135.7,158.2
	c-2.2,2.6-4.5,4.8-8,5.1c-9.5,0.8-16.5,5.5-21.6,13.4c-0.4,0.7-1,1.3-1.6,1.9c-2.8,2.4-1.9,4,0.6,6.1c9.7,8.1,19.3,16.4,28.9,24.7
	c7.7,6.6,15.5,13.3,23.2,19.9c9.1,7.8,8.7,7.4,17-1.1c6.2-6.3,8.9-12.9,6.8-21.5c-1.1-4.4,0.6-7.6,3.5-11
	c41.5-48.2,83-96.5,124.4-144.8c41.4,48.3,82.9,96.6,124.4,144.8c2.9,3.4,4.6,6.6,3.5,11c-2.1,8.6,0.6,15.2,6.8,21.5
	c8.3,8.5,7.9,8.9,17,1.1c7.7-6.6,15.5-13.3,23.2-19.9c9.6-8.2,19.1-16.6,28.9-24.7c2.5-2.1,3.4-3.8,0.6-6.1
	c-0.6-0.5-1.2-1.2-1.6-1.9c-5.1-7.9-12.1-12.6-21.6-13.4c-3.5-0.3-5.8-2.5-8-5.1c-45.2-52.7-90.4-105.4-135.7-158.2
	c0.7-0.7,1.7-1.3,2.6-1.9c3.1-2.4,6.1-5,9.3-7.4c26.1-19.8,53-38.1,83.6-50.4c20.7-8.3,41.9-14.9,63.1-21.4
	c4.6,0.2,8.5,0.2,11.5,0.2c22.1-0.5,43.6-4.3,64.3-11.9c68-24.8,117.5-70.7,150.8-134.1C949.5,258,960.2,203.6,945.6,146.5z
	 M929.4,169.5c3.2,6.7-1.1,10.8-4.7,15.2c-7.8,9.5-7.7,9.5-17.1,2c-3.1-2.5-6.1-5.2-9.4-7.5c-2.4-1.7-2.7-3-0.7-5.4
	c5.6-6.5,11-13.2,16.2-20c1.9-2.4,3.2-2.5,5.5-0.5C924.3,157.7,931.2,160.9,929.4,169.5z M664.7,247.3c-2.1-1.7-2.4-2.9-0.6-5
	c5.7-6.7,11.1-13.6,16.7-20.5c1.1-1.4,2.1-2.7,4.1-1c5.9,4.9,11.9,9.7,17.8,14.5c0.6,0.5,1,1.1,1.5,1.7c-0.7,0.9-1.2,1.7-1.8,2.4
	c-5.4,6.7-10.9,13.3-16.2,20.1c-1.7,2.2-3,3-5.4,0.8C675.6,255.8,670.2,251.5,664.7,247.3z M677,270.8c-5.4,6.4-10.7,12.9-15.8,19.6
	c-2.2,2.9-3.6,2.8-6.2,0.5c-5-4.4-10.3-8.5-15.5-12.7c-1.3-1.1-3-1.9-1.2-4c6.1-7.4,12-14.8,18-22.2c0.3-0.4,0.8-0.8,1.2-1.1
	c1.4-0.2,2.1,0.9,3,1.6c5.4,4.3,10.6,8.8,16,12.9C679.1,267.3,678.9,268.6,677,270.8z M691.3,263.7c5.4-6.4,10.7-12.9,15.8-19.6
	c1.9-2.5,3.3-3,5.8-0.8c5,4.4,10.3,8.5,15.5,12.7c0.9,0.7,1.7,1.5,2.7,2.4c-0.6,0.9-1.1,1.7-1.6,2.4c-5.6,7-11.3,13.9-16.8,21
	c-1.8,2.3-3.1,1.9-5.1,0.3c-5.2-4.4-10.5-8.8-16-13C689.1,267.2,689.4,265.9,691.3,263.7z M753.7,225c2.4,1.9,2.4,3.2,0.5,5.5
	c-5.5,6.6-11,13.3-16.3,20.1c-1.7,2.1-2.8,2.5-5,0.6c-5.4-4.6-10.9-9-16.5-13.4c-1.5-1.2-2.4-2.2-0.8-4.2c6-7.2,11.8-14.5,17.7-21.8
	c0.4-0.5,1.1-1,1.7-1.5c0.9,0.7,1.7,1.2,2.5,1.8C743,216.3,748.2,220.8,753.7,225z M741.4,201.7c5.6-6.5,11-13.3,16.3-20
	c1.5-1.9,2.6-2.9,5-0.9c5.4,4.6,11,9,16.4,13.4c0.7,0.6,1.4,1.2,2.3,2c-0.7,1.1-1.3,2.1-2,2.9c-5.4,6.7-10.9,13.3-16.2,20.1
	c-1.9,2.5-3.3,2.3-5.5,0.4c-5.1-4.3-10.3-8.6-15.6-12.7C739.9,205.4,739.3,204.2,741.4,201.7z M718,285.7
	c5.7-6.7,11.2-13.6,16.6-20.5c1.5-1.9,2.6-2.2,4.6-0.6c5.6,4.7,11.3,9.2,16.9,13.8c1.4,1.1,2.1,2,0.7,3.7
	c-6.1,7.4-12.1,14.8-18.1,22.3c-0.3,0.4-0.8,0.7-1.5,1.3c-0.7-0.5-1.5-1.1-2.2-1.6c-5.5-4.4-10.9-9-16.6-13.3
	C716.2,289.1,716.2,287.8,718,285.7z M744.1,260.2c-2.5-1.9-3-3.2-0.8-5.8c5.5-6.4,10.7-13,15.9-19.6c1.4-1.7,2.4-3.4,5-1.2
	c5.7,4.8,11.6,9.4,17.3,14.2c0.6,0.5,1,1,1.6,1.6c-0.8,1.1-1.5,2-2.2,2.9c-5.3,6.5-10.7,13-15.8,19.7c-2,2.7-3.5,2.6-5.9,0.5
	C754.4,268.2,749.3,264.1,744.1,260.2z M768.9,228.8c-2-1.6-2.6-2.9-0.7-5.1c5.8-6.9,11.3-13.9,17-20.9c0.5-0.6,1.1-1.1,1.8-1.8
	c1,0.7,2,1.2,2.9,1.9c5.4,4.3,10.6,8.7,16.1,12.9c2.1,1.6,2.4,2.8,0.6,5c-5.7,6.7-11.2,13.6-16.6,20.5c-1.7,2.3-2.9,2.2-5,0.5
	C779.7,237.3,774.3,233,768.9,228.8z M795.1,245.4c5.6-6.8,11.2-13.6,16.6-20.5c1.5-1.9,2.6-2.3,4.5-0.6c5.5,4.7,11.2,9.2,16.9,13.8
	c1.3,1.1,2.2,1.9,0.8,3.7c-6.1,7.4-12,14.9-18.1,22.3c-0.3,0.4-0.9,0.7-1.5,1.2c-0.9-0.6-1.9-1.2-2.8-1.9
	c-5.4-4.3-10.6-8.8-16.1-12.9C793.2,248.7,793.5,247.4,795.1,245.4z M820.7,219.3c-2.3-1.8-2-3-0.4-5c5.5-6.6,10.9-13.3,16.2-20.1
	c1.8-2.3,3-2.7,5.4-0.7c5.2,4.5,10.6,8.8,16,13c2.2,1.7,2.2,3,0.5,5.1c-5.5,6.6-10.8,13.4-16.3,20c-0.7,0.9-1.5,1.6-2.4,2.6
	c-1-0.6-1.8-1.1-2.5-1.7C831.7,228.2,826.3,223.6,820.7,219.3z M840.3,179.1c-1.6,2-2.8,2.5-5,0.6c-5.2-4.5-10.6-8.8-16.1-13
	c-2.5-1.9-2.3-3.3-0.5-5.5c5.5-6.6,10.9-13.3,16.3-20c1.4-1.7,2.5-2.7,4.6-0.9c5.7,4.8,11.6,9.4,17.3,14.1c0.6,0.5,1,1.1,1.6,1.7
	c-0.6,0.9-1.1,1.7-1.7,2.4C851.3,165.4,845.8,172.2,840.3,179.1z M832.1,185.7c0.4,0.3,0.7,0.8,1.3,1.5c-0.6,0.7-1.1,1.5-1.6,2.2
	c-5.6,7-11.3,13.9-16.8,20.9c-1.6,2-2.7,2.1-4.6,0.5c-5.4-4.5-10.9-9-16.4-13.3c-2.1-1.6-2.5-2.8-0.6-5c5.7-6.7,11.1-13.6,16.6-20.4
	c1.1-1.3,1.9-3,4-1.2C820,175.9,826.1,180.8,832.1,185.7z M804.7,168c-5.5,6.8-11,13.6-16.5,20.5c-1.4,1.7-2.4,2.6-4.5,0.8
	c-5.5-4.7-11.2-9.2-16.9-13.7c-2-1.5-2.1-2.7-0.5-4.6c5.7-6.9,11.4-13.8,16.9-20.9c1.6-2,2.8-1.9,4.6-0.4
	c5.5,4.7,11.2,9.2,16.8,13.8c0.6,0.5,1.1,1,1.9,1.7C805.9,166.2,805.4,167.2,804.7,168z M777.9,146.2c-5.7,6.7-11.2,13.6-16.6,20.5
	c-1.4,1.8-2.6,2.4-4.7,0.7c-5.6-4.7-11.3-9.2-16.9-13.8c-0.7-0.6-1.2-1.3-2-2.1c0.9-1.1,1.5-2,2.2-2.9c5.3-6.5,10.7-13,15.8-19.6
	c1.7-2.2,3-2.9,5.4-0.8c5.2,4.5,10.6,8.8,16,13C779.3,142.8,779.8,144,777.9,146.2z M753,173.1c0.5,0.4,1,1,1.6,1.6
	c-0.7,1-1.3,1.7-1.9,2.4c-5.5,6.8-11.1,13.6-16.5,20.5c-1.7,2.2-2.9,2.3-5,0.6c-5.4-4.6-10.9-9-16.4-13.3c-1.9-1.5-2.2-2.6-0.6-4.6
	c5.7-6.9,11.3-13.9,16.9-20.9c1.2-1.5,2.2-2.4,4.1-0.8C741.1,163.6,747.1,168.3,753,173.1z M727.8,204.2c0.4,0.4,0.8,0.8,1.4,1.4
	c-0.5,0.8-0.9,1.6-1.4,2.3c-5.6,7-11.3,14-16.9,21c-1.5,1.9-2.6,2.3-4.6,0.6c-5.4-4.6-10.9-9-16.5-13.4c-2.2-1.7-2.2-2.9-0.5-5
	c5.7-6.7,11.1-13.6,16.6-20.5c1.2-1.5,2.1-2.6,4.1-0.9C715.9,194.6,721.9,199.4,727.8,204.2z M700.8,186.4
	c-5.6,6.8-11.2,13.6-16.6,20.5c-1.6,2.1-2.9,2.5-5.1,0.6c-5.4-4.6-11-9-16.4-13.4c-1.2-0.9-2.7-1.7-1.1-3.6c6-7.4,12-14.9,18.1-22.3
	c0.5-0.6,1.1-0.9,1.8-1.4c0.9,0.7,1.7,1.2,2.5,1.8c5.5,4.4,10.9,9,16.5,13.3C702.5,183.4,702.4,184.6,700.8,186.4z M675.2,212.9
	c0.7,0.6,1.3,1.3,2.2,2.1c-0.8,1.1-1.4,2-2.1,2.9c-5.4,6.7-10.9,13.3-16.2,20.1c-1.6,2-2.7,2.7-5,0.7c-5.2-4.5-10.6-8.8-16-13
	c-2.4-1.8-2.5-3.1-0.5-5.5c5.6-6.6,10.9-13.4,16.3-20.1c1.2-1.5,2.2-3,4.5-1C663.8,203.8,669.5,208.3,675.2,212.9z M650.9,244.6
	c0.4,0.4,0.8,0.8,1.4,1.4c-0.5,0.7-1,1.5-1.6,2.2c-5.6,7-11.3,13.9-16.8,21c-1.7,2.2-3.1,2.1-5.1,0.4c-5.4-4.5-10.9-9-16.4-13.3
	c-2.1-1.6-1.9-2.8-0.3-4.6c5.7-6.9,11.3-13.9,16.9-20.9c1-1.2,1.9-2.4,3.7-0.9C638.7,234.8,644.8,239.7,650.9,244.6z M631,283.3
	c0.4-0.6,1.1-0.9,1.8-1.5c1.1,0.8,2,1.4,2.9,2.1c5.2,4.2,10.3,8.5,15.6,12.6c2.4,1.8,2.4,3.2,0.5,5.5c-5.4,6.4-10.7,13-15.8,19.6
	c-1.9,2.5-3.2,3-5.8,0.7c-5-4.4-10.3-8.5-15.5-12.7c-1.5-1.2-3.2-2.1-1.3-4.5C619.3,297.9,625.1,290.5,631,283.3z M640.9,325.9
	c5.6-6.6,10.9-13.3,16.3-20.1c1.3-1.6,2.2-3,4.5-1.1c5.7,4.8,11.6,9.4,17.4,14.1c0.6,0.5,1.1,1,1.7,1.7c-0.6,0.9-1.1,1.7-1.6,2.4
	c-5.5,6.8-11.2,13.6-16.6,20.6c-2,2.6-3.3,2.1-5.5,0.4c-5.1-4.3-10.3-8.5-15.6-12.6C639.2,329.6,638.9,328.3,640.9,325.9z
	 M665.9,299.6c-1.4-1.1-2-2-0.6-3.6c6.1-7.4,12-14.8,18-22.2c0.4-0.4,0.8-0.8,1.4-1.4c0.7,0.5,1.6,0.9,2.3,1.4
	c5.6,4.5,11.2,9.2,16.9,13.7c1.9,1.5,2.1,2.7,0.5,4.6C698.6,299,693,306,687.4,313c-1.3,1.6-2.4,2.2-4.2,0.7
	C677.5,308.9,671.7,304.2,665.9,299.6z M692.7,317c5.7-6.7,11.2-13.6,16.6-20.5c1.7-2.2,3-2.3,5.1-0.5c5.4,4.6,11,8.9,16.4,13.4
	c0.7,0.6,1.3,1.3,2,2.1c-0.7,0.9-1.2,1.7-1.8,2.5c-5.5,6.8-11.1,13.6-16.5,20.6c-1.7,2.2-2.9,2.3-5,0.5c-5.2-4.5-10.6-8.8-16-13
	C691.5,320.4,690.8,319.2,692.7,317z M719.7,338.6c5.6-6.7,11.2-13.6,16.6-20.4c1.4-1.8,2.5-2.4,4.6-0.7c5.5,4.7,11.2,9.2,16.9,13.7
	c1.6,1.3,2.2,2.2,0.7,4.1c-6,7.2-11.8,14.5-17.7,21.8c-0.5,0.6-1.1,1-1.7,1.6c-0.9-0.7-1.7-1.2-2.4-1.7c-5.5-4.4-10.9-9-16.5-13.2
	C717.8,341.8,718,340.6,719.7,338.6z M745.4,312.6c-2.2-1.7-2.3-3-0.5-5.1c5.8-6.9,11.4-13.9,17-20.9c1.1-1.4,1.9-2,3.6-0.6
	c5.9,4.9,11.9,9.7,17.8,14.5c0.6,0.5,1,1.1,1.6,1.8c-0.8,1.1-1.4,2-2.1,2.9c-5.3,6.5-10.7,13-15.9,19.6c-1.7,2.2-3,3-5.4,0.9
	C756.2,321.1,750.8,316.8,745.4,312.6z M770.8,281.8c-2.3-1.7-2.8-2.9-0.8-5.4c5.7-6.7,11.2-13.6,16.6-20.5c1.5-2,2.7-2.1,4.6-0.5
	c5.4,4.6,11,9,16.4,13.4c0.7,0.6,1.4,1.2,2.3,2c-0.7,1-1.2,2-1.9,2.9c-5.4,6.7-10.9,13.3-16.2,20.1c-1.9,2.4-3.2,2.5-5.5,0.6
	C781.3,290,776.1,285.8,770.8,281.8z M796.8,298.3c5.7-6.7,11.1-13.6,16.6-20.5c1.1-1.4,1.9-2.9,4-1.1c5.9,4.9,11.8,9.7,17.8,14.5
	c0.5,0.4,0.9,1.1,1.5,1.7c-0.7,1-1.2,1.8-1.8,2.5c-5.5,6.8-11.2,13.6-16.5,20.5c-1.8,2.3-3,2.1-5,0.4c-5.2-4.5-10.6-8.8-16-13
	C795.4,301.7,795,300.5,796.8,298.3z M822.6,272.2c-1.2-1-3.2-1.7-1.4-4c6.1-7.4,12-14.8,18-22.2c0.5-0.6,1.1-1,1.7-1.5
	c0.9,0.7,1.7,1.2,2.4,1.8c5.5,4.4,10.9,8.9,16.5,13.2c1.9,1.5,2.2,2.5,0.6,4.5c-5.8,6.9-11.4,13.8-16.9,20.9
	c-1.8,2.3-3.2,1.8-5.1,0.2C833.3,280.8,827.9,276.5,822.6,272.2z M847.5,241c-1.9-1.5-2.1-2.7-0.5-4.6c5.7-6.9,11.3-13.9,16.9-20.9
	c1.3-1.6,2.3-2.3,4.2-0.7c5.9,4.9,11.8,9.6,17.7,14.4c0.4,0.4,0.8,0.8,1.4,1.4c-0.6,0.9-1.2,1.8-1.8,2.7
	c-5.5,6.8-11.1,13.6-16.5,20.5c-1.6,2.1-2.8,2.5-5,0.6C858.6,249.7,853.1,245.3,847.5,241z M867.2,200.8c-1.5,1.9-2.6,2.8-4.9,0.8
	c-5.3-4.6-10.8-9-16.4-13.3c-2.2-1.7-2.2-2.9-0.5-5c5.7-6.7,11.1-13.6,16.6-20.4c1.1-1.3,1.9-2.9,4-1.1c5.9,4.9,11.8,9.6,17.8,14.4
	c0.6,0.5,1,1,1.7,1.7c-0.8,1-1.4,2-2.1,2.9C878,187.4,872.5,194,867.2,200.8z M870.6,156.8c-1.8-1.4-1.8-2.5-0.4-4.1
	c5.8-7.1,11.6-14.2,17.4-21.4c1.2-1.4,2.2-1.9,3.8-0.6c5.7,4.8,11.6,9.4,17.4,14.1c0.6,0.5,1.1,1,1.4,1.4c0.3,1.6-0.8,2.3-1.4,3.2
	c-5.5,6.9-11.1,13.6-16.5,20.6c-1.5,1.9-2.6,2.1-4.6,0.5C882,165.8,876.3,161.3,870.6,156.8z M882.3,127.1
	c-6,7.2-11.8,14.5-17.7,21.7c-0.4,0.6-1,1-1.7,1.6c-0.9-0.7-1.7-1.2-2.4-1.8c-5.5-4.4-10.9-9-16.5-13.2c-2.3-1.8-2-3-0.3-5
	c5.5-6.6,10.9-13.3,16.2-20c1.7-2.2,3-2.9,5.4-0.8c5.2,4.5,10.6,8.7,15.9,13C882.8,123.8,884.3,124.8,882.3,127.1z M855.8,105
	c-6.1,7.4-12,14.8-18.1,22.2c-0.5,0.6-1.1,0.9-1.6,1.3c-0.4-0.2-0.6-0.2-0.7-0.3c-6.7-5.4-13.4-10.7-19.9-16.3
	c-1-0.9,0.5-2.1,1.1-2.9c5.6-7,11.3-13.9,16.9-20.9c1.5-1.9,2.7-2.1,4.6-0.5c5.5,4.7,11.2,9.1,16.9,13.7
	C856.3,102.3,857.2,103.2,855.8,105z M830.3,132.8c0.4,0.3,0.7,0.8,1.3,1.5c-0.5,0.8-0.9,1.6-1.5,2.3c-5.6,7-11.3,13.9-16.9,20.9
	c-1.5,1.9-2.6,2.2-4.6,0.6c-5.5-4.7-11.2-9.2-16.9-13.7c-1.7-1.3-2.1-2.3-0.6-4.1c5.8-7,11.5-14.2,17.3-21.3c1-1.2,1.8-2.5,3.6-1
	C818.1,123,824.2,127.9,830.3,132.8z M803,115.1c-5.5,6.8-11.1,13.6-16.5,20.5c-1.7,2.1-2.8,2.4-5,0.6c-5.2-4.5-10.6-8.8-16-13
	c-2.2-1.7-2.8-2.9-0.7-5.4c5.6-6.5,10.9-13.3,16.3-19.9c1.1-1.4,1.9-3.5,4.4-1.4c5.8,4.9,11.8,9.6,17.7,14.5c0.5,0.4,1,1,1.6,1.7
	C804.1,113.6,803.6,114.3,803,115.1z M776.1,93.4c-5.5,6.8-11.1,13.6-16.5,20.5c-1.7,2.2-2.9,2.2-4.9,0.4c-5.2-4.5-10.5-8.8-16-12.9
	c-2.4-1.8-2.5-3.1-0.6-5.4c5.5-6.5,10.9-13.2,16.2-20c1.6-2,2.7-2.8,5-0.8c5.5,4.7,11.2,9.2,16.8,13.7c0.6,0.5,1.1,1,1.9,1.7
	C777.3,91.6,776.8,92.5,776.1,93.4z M750.9,119.9c0.6,0.5,1.1,1,1.9,1.7c-0.6,0.9-1,1.7-1.5,2.4c-5.6,7-11.4,13.9-16.8,20.9
	c-1.8,2.3-3.1,2-5,0.3c-5.2-4.4-10.5-8.8-16-12.9c-2.6-1.9-2.2-3.3-0.4-5.4c5.5-6.6,10.8-13.3,16.2-20c1.2-1.5,2.1-3.1,4.4-1.1
	C739.3,110.7,745.1,115.3,750.9,119.9z M725.2,150.6c1.2,1,3.2,1.8,1.4,4c-6.1,7.4-12,14.9-18.1,22.3c-0.4,0.4-0.8,0.8-1.4,1.3
	c-0.9-0.6-1.9-1.1-2.7-1.8c-5.4-4.3-10.6-8.7-16.1-13c-2.1-1.6-2.5-2.9-0.7-5.1c5.6-6.7,11.2-13.6,16.6-20.5c1.8-2.3,3-2.1,5-0.4
	C714.4,142,719.8,146.2,725.2,150.6z M699.1,133.5c-5.5,6.9-11.1,13.6-16.6,20.6c-1.7,2.1-2.9,2.4-5.1,0.6
	c-5.4-4.6-10.9-9-16.5-13.4c-2-1.5-2-2.6-0.4-4.5c5.6-6.7,11.1-13.6,16.6-20.5c1.3-1.6,2.2-3,4.5-1.1c5.7,4.8,11.6,9.4,17.4,14.1
	c0.6,0.5,1,1.1,1.7,1.7C700.1,132,699.6,132.8,699.1,133.5z M673.4,159.9c2.3,1.8,2.1,3,0.4,5c-5.6,6.7-11.1,13.5-16.6,20.4
	c-1.4,1.8-2.5,2.4-4.5,0.7c-5.5-4.7-11.2-9.2-16.9-13.7c-1.5-1.2-2.3-2.2-0.7-4.1c6-7.2,11.8-14.5,17.7-21.7c0.4-0.6,1-1,1.7-1.6
	c0.9,0.7,1.7,1.1,2.5,1.7C662.4,151.1,667.8,155.6,673.4,159.9z M648,190.7c2.5,1.9,2.2,3.3,0.4,5.5c-5.5,6.6-10.9,13.2-16.2,20
	c-1.6,2-2.7,2.6-5,0.7c-5.4-4.6-10.8-9-16.4-13.3c-2.3-1.7-2.1-2.9-0.4-5c5.5-6.6,10.8-13.3,16.2-20c0.7-0.9,1.5-1.7,2.4-2.7
	c1.1,0.7,2.1,1.3,2.9,1.9C637.3,182.2,642.6,186.6,648,190.7z M623.1,222.1c2.4,1.8,1.9,3.1,0.3,5c-5.5,6.6-10.9,13.3-16.3,20.1
	c-1.5,1.9-2.7,2.8-5,0.9c-5.4-4.6-11-9-16.5-13.4c-1.4-1.1-2.7-2-1-4.1c6-7.2,11.8-14.5,17.7-21.8c0.5-0.6,1.1-1,1.8-1.6
	c0.9,0.6,1.7,1.1,2.4,1.7C612.1,213.2,617.5,217.8,623.1,222.1z M603.7,262c1.1-1.4,2.1-2.6,4.1-0.9c5.9,4.9,11.8,9.6,17.8,14.4
	c0.6,0.5,1,1.1,1.5,1.7c-0.7,0.9-1.2,1.7-1.8,2.4c-5.5,6.8-11.1,13.6-16.5,20.5c-1.7,2.2-2.9,2.3-5,0.5c-5.4-4.6-10.9-9-16.4-13.3
	c-1.9-1.5-2.2-2.5-0.5-4.5C592.5,276,598.1,269,603.7,262z M599.6,306c1.4,1.1,2.8,2,1.1,4.1c-8.7,10.6-17.3,21.2-26.5,32.6
	c-3.7-11-5.5-21.1-7.1-31.3c-0.5-3,0.7-5.1,2.5-7.2c3-3.5,5.9-7,8.7-10.7c1.5-2,2.6-2.9,4.9-0.9C588.5,297.2,594.1,301.6,599.6,306z
	 M590.1,334.1c4.4-6.7,9.9-12.6,15-18.8c1.1-1.4,1.9-3.5,4.4-1.4c5.8,4.9,11.8,9.6,17.7,14.5c0.6,0.5,1,1.1,1.5,1.7
	c-0.8,1.1-1.5,2-2.2,2.9c-11,13.7-22.1,27.2-33.1,41c-2.2,2.8-3.3,2.8-5.1-0.3c-4-6.8-9-13.4-10.2-20.9
	C576.7,344.2,586,340.3,590.1,334.1z M596.9,380.3c11.7-14.3,23.4-28.7,35-43.2c1.9-2.4,3.3-2.4,5.5-0.5c5.2,4.5,10.5,8.9,16,13
	c2.5,1.9,1.8,3.1,0.3,5c-12.5,15.4-25,30.9-37.6,46.3c-0.6,0.7-1.3,1.4-2.1,2.3c-1-0.7-2-1.3-2.8-2c-5.2-4.8-9.9-10-14.5-15.4
	C595,383.6,595.3,382.3,596.9,380.3z M621.5,404.8c12.5-15.2,24.9-30.5,37.2-45.8c1.4-1.7,2.4-3.3,4.9-1.1c5.3,4.6,11,8.9,16.4,13.4
	c0.7,0.6,1.4,1.3,2,1.9c0.1,1.7-1,2.6-1.9,3.6c-11.5,14.3-23.1,28.5-34.6,42.8c-1.8,2.2-3.2,2.6-5.7,1.2c-6.1-3.3-12-6.8-17.6-10.7
	C620,408.4,619.5,407.2,621.5,404.8z M668.1,352.9c-2.2-1.7-2.3-2.8-0.5-4.9c5.7-6.7,11.1-13.6,16.6-20.4c1-1.3,1.9-3,4-1.2
	c6,5,12.1,9.8,18.2,14.8c0.4,0.3,0.7,0.8,1.2,1.5c-0.7,0.9-1.3,1.8-2,2.7c-5.4,6.7-10.9,13.3-16.1,20c-1.9,2.5-3.2,2.4-5.4,0.5
	C678.9,361.4,673.5,357.1,668.1,352.9z M694,370.4c5.8-7.1,11.6-14.2,17.3-21.5c1.7-2.2,2.9-1.6,4.6-0.2c5.5,4.5,10.9,9,16.5,13.4
	c2,1.6,2,2.8,0.4,4.6c-5.6,6.8-11.1,13.7-16.7,20.5c-0.7,0.8-1.2,2-2.8,2c-0.5-0.3-1.1-0.7-1.7-1.2c-5.8-4.7-11.6-9.4-17.4-14
	C692.6,372.8,692.8,371.9,694,370.4z M721.3,391.6c5.7-6.7,11.1-13.6,16.7-20.5c1.1-1.3,1.9-3,4.1-1.2c5.9,4.9,11.9,9.6,17.8,14.5
	c0.6,0.5,1,1.1,1.6,1.7c-0.6,0.9-1.1,1.7-1.7,2.5c-5.5,6.9-11.1,13.6-16.6,20.6c-1.7,2.2-3,2.2-5,0.5c-5.2-4.5-10.6-8.8-16-13
	C720.1,395,719.3,393.9,721.3,391.6z M746.9,365.2c-1.1-0.9-2.8-1.6-1.2-3.5c6.2-7.5,12.2-15.1,18.4-22.7c0.4-0.4,0.9-0.7,1.4-1.2
	c0.7,0.5,1.5,1,2.2,1.6c5.5,4.4,10.9,8.9,16.5,13.3c2.1,1.6,2.5,2.8,0.6,5c-5.7,6.7-11.2,13.5-16.6,20.4c-1.7,2.2-2.9,2.3-5,0.5
	C757.9,374,752.3,369.6,746.9,365.2z M772,334.1c-2-1.5-2.1-2.6-0.5-4.6c5.7-6.9,11.4-13.8,16.9-20.9c1.6-2,2.8-1.9,4.6-0.4
	c5.6,4.6,11.2,9.2,16.9,13.7c1.4,1.1,2.2,1.9,0.7,3.6c-6.1,7.3-12,14.8-18,22.2c-0.4,0.4-0.8,0.8-1.5,1.4c-0.7-0.5-1.5-0.9-2.2-1.5
	C783.3,343.2,777.7,338.6,772,334.1z M798.4,351.4c5.7-6.9,11.3-13.9,16.9-20.9c1.2-1.5,2.1-2.6,4.1-0.9c5.8,4.9,11.8,9.6,17.7,14.4
	c0.5,0.4,0.9,1,1.5,1.7c-0.7,1-1.2,1.7-1.8,2.5c-5.5,6.8-11.1,13.6-16.5,20.5c-1.7,2.2-2.8,2.4-4.9,0.6c-5.4-4.6-10.9-9-16.4-13.3
	C797,354.5,796.7,353.4,798.4,351.4z M824.1,324.9c-1.9-1.5-2.2-2.6-0.6-4.6c5.8-6.9,11.4-13.9,17-20.9c1-1.2,1.7-2.6,3.6-1
	c6.1,5,12.2,9.9,18.3,14.8c0.4,0.3,0.7,0.9,1.3,1.5c-0.5,0.7-1,1.5-1.6,2.2c-5.6,7-11.4,13.9-16.9,21c-1.6,2.1-2.8,1.9-4.6,0.3
	C835.2,333.7,829.7,329.3,824.1,324.9z M848.9,293.6c-1.8-1.4-1.8-2.4-0.4-4.1c5.7-6.9,11.3-13.9,17-20.9c1.2-1.4,2.2-2.6,4.2-1
	c5.9,4.9,11.9,9.6,17.8,14.5c0.4,0.4,0.8,0.8,1.3,1.5c-0.6,0.9-1.1,1.9-1.8,2.7c-5.5,6.8-11.1,13.6-16.5,20.5
	c-1.5,1.9-2.7,2.2-4.6,0.5C860.3,302.6,854.6,298.1,848.9,293.6z M874.1,262.5c-1.7-1.3-1.9-2.4-0.5-4.1c5.8-7,11.6-14.2,17.3-21.3
	c1.1-1.3,2-2.3,3.7-0.8c6,5,12.1,9.9,18.2,14.8c0.4,0.3,0.7,0.8,1.3,1.5c-0.5,0.8-1,1.6-1.6,2.3c-5.6,7-11.3,13.9-16.9,20.9
	c-1.6,2-2.7,2.1-4.6,0.5C885.4,271.6,879.8,267,874.1,262.5z M894,222.7c-1.7,2.1-2.8,2.4-5,0.6c-5.3-4.6-10.9-9-16.4-13.3
	c-1.9-1.5-2.3-2.5-0.6-4.5c5.7-6.9,11.3-13.9,17-20.9c1.1-1.4,2-2.7,4-1c5.8,4.9,11.8,9.6,17.7,14.5c0.5,0.4,1,1,1.6,1.6
	c-0.7,1-1.2,1.8-1.8,2.5C905,209,899.4,215.8,894,222.7z M919.8,132.1c1.7,3.9-1.6,5.6-3.5,7.7c-2.3,2.6-3.7-0.5-5.1-1.6
	c-5-3.8-9.8-8-14.8-11.8c-2.2-1.7-2.9-2.9-0.8-5.4c3.6-4.2,6.7-8.8,10.5-13.9C912.4,115.8,916.3,123.9,919.8,132.1z M886,83.5
	c5.3,4.9,10.3,10.1,14.8,15.9c1,1.2,2.1,2.3,0.7,4c-4,4.9-7.9,9.8-11.9,14.6c-0.3,0.4-0.9,0.7-1.5,1.1c-0.6-0.4-1.3-0.7-1.9-1.1
	c-5.8-4.6-11.6-9.4-17.4-13.9c-1.8-1.4-1.7-2.5-0.3-4.2c4.4-5.3,8.7-10.6,12.9-16C883,81.8,884.2,81.9,886,83.5z M856.6,63.7
	c6.7,3.4,13,7.2,19.1,11.5c0.7,0.5,1.4,1.2,2.2,1.9c-0.7,1-1.2,1.8-1.8,2.5c-4.2,5.2-8.4,10.4-12.6,15.6c-1.4,1.8-2.5,2.5-4.6,0.7
	c-5.5-4.7-11.2-9.3-16.9-13.7c-2.1-1.6-1.8-2.9-0.3-4.6c3.6-4.2,7.1-8.5,10.5-12.9C853.6,63.3,854.7,62.7,856.6,63.7z M814.2,57.1
	c1.7-2.2,2.7-5.7,6.8-5c8.8,1.7,17.4,3.9,27.1,7.9c-4.3,5.1-8.2,9.3-11.7,13.8c-1.8,2.2-2.9,1.5-4.6,0.2c-5-4.1-10.1-8.1-15.1-12.3
	C815.5,60.6,812.1,59.9,814.2,57.1z M811.2,65.8c5.4,4.6,10.9,9,16.5,13.4c1.8,1.4,2.6,2.5,0.8,4.6c-5.9,7-11.6,14.2-17.4,21.4
	c-0.5,0.6-1.1,1-1.7,1.7c-0.9-0.6-1.7-1-2.4-1.6c-5.5-4.4-10.9-9-16.5-13.3c-2.4-1.8-2-3.1-0.4-5c5.6-6.8,11.2-13.6,16.6-20.5
	C808.1,64.4,809.2,64.1,811.2,65.8z M782.1,50.4c9-3.3,13.8,3.4,19.6,7.8c1.8,1.4,0.8,2.6-0.2,3.8c-5.8,7.1-11.6,14.2-17.3,21.4
	c-1.5,1.9-2.6,1.4-4.1,0.1c-5.4-4.5-10.9-9-16.5-13.3c-2.1-1.6-2.5-2.9-0.6-5c3.4-3.9,6.7-7.9,9.7-12C775.3,49.7,779,51,782.1,50.4z
	 M763.8,52.8c-9.8,13.7-7.1,11.8-16.1,3.9C751.3,54.6,757,53.2,763.8,52.8z M711.5,73.7c5.9-9.7,16.3-11.2,25.9-14.9
	c3.6,0.5,5.6,3.9,8.6,5.7c5,2.9,5.2,5.7,1.1,9.9c-5,5.2-9.4,11-13.7,16.8c-2.3,3.1-4,3-6.7,0.5c-4.7-4.2-9.5-8.2-14.6-11.9
	C709,77.7,709.8,76.4,711.5,73.7z M707.2,84.4c5.4,4.5,11,8.9,16.4,13.4c0.8,0.7,2.1,1.1,2.1,2.8c-0.4,0.6-1,1.3-1.6,2.1
	c-5.5,6.8-11.1,13.6-16.5,20.5c-1.7,2.2-2.9,2.2-5,0.4c-5.4-4.6-10.9-9-16.4-13.3c-1.9-1.5-2.1-2.6-0.5-4.5
	c5.8-6.9,11.4-13.9,16.9-20.9C704.2,82.8,705.3,82.9,707.2,84.4z M694.7,77.8c1.2-0.7,2.3-1.6,3.6-0.3c1.4,1.5-0.3,2.4-1,3.3
	c-5.5,6.9-11.1,13.6-16.5,20.5c-1.6,2.1-2.9,2.4-5,0.6c-2.4-2.1-5.2-3.8-8.2-6C676.8,88.7,685.5,82.9,694.7,77.8z M647.1,113.1
	c3.9-3.6,8.1-7,11.9-10.6c2.3-2.2,4-2.5,6.7-0.2c8.4,7,8.5,6.9,1.7,15.3c-3.8,4.8-7.6,9.5-11.5,14.2c-0.8,1-1.8,1.9-3.5,3.7
	c-1.7-1.8-3.1-3.7-4.9-5.1C637.3,122.1,637.3,122.1,647.1,113.1z M614.4,150c5.5-6.6,10.9-13.3,16.3-20c1.1-1.3,2-3.1,4.1-1.3
	c4.1,3.4,8.3,6.8,12.4,10.2c0.4,0.4,0.8,0.8,1.4,1.4c-0.6,0.9-1.1,1.9-1.8,2.8c-5.4,6.7-10.9,13.3-16.3,20.1
	c-1.8,2.3-3.1,2.8-5.4,0.7c-3.2-3-6.7-5.7-10.3-8.3C612.4,153.7,612.6,152.2,614.4,150z M594.1,182.4c3.8-6.8,8-13.4,11.8-20.2
	c1.6-2.8,3.2-3.6,5.6-1c0.6,0.7,1.5,1.2,2.2,1.8c3.2,2.9,9.2,5,9.2,8.6c0,3.4-4.8,6.9-7.5,10.3c-3.2,4-6.5,8-9.7,12
	c-0.8,1-1.5,2.2-3.9,2.8c-2.8-2.5-6.3-5.1-9.3-8.3C590.4,186.2,593.1,184.2,594.1,182.4z M576.4,224c3-9.3,6.5-18.3,10.5-27.2
	c0.9-2.1,1.8-2.5,3.7-1c2.7,2,5.7,3.7,8.7,5.7c-1.5,2.1-2,2.9-2.6,3.6c-5.6,7-11.3,14-17,20.9c-0.7,0.8-1.2,2.2-2.7,1.6
	C575.4,226.7,576,225.2,576.4,224z M572.8,245.2c1.9-2.4,3.5-5,4.7-6.7c2.6-0.2,3.3,0.9,4.2,1.6c5.4,4.3,10.6,8.7,16.1,12.9
	c2,1.6,2.7,2.7,0.8,4.9c-5.7,6.7-11.2,13.5-16.6,20.5c-1.6,2-2.9,2.9-4.9,0.6c-0.1-0.1-0.3-0.2-0.4-0.4c-3-3.3-9.4-4.7-9.2-9.4
	C567.7,261.1,567.2,252.3,572.8,245.2z M566.2,279.6c10.7,7.6,11,4.9,0.3,17C565.4,291,565.9,285.6,566.2,279.6z M433.5,296.6
	c-10.8-12.1-10.4-9.4,0.3-17C434.1,285.6,434.6,291,433.5,296.6z M166.8,238.1c5.7-4.5,11.4-9.1,16.9-13.8c2-1.7,3-1.3,4.5,0.6
	c5.4,6.9,11,13.8,16.6,20.5c1.7,2,1.9,3.3-0.4,5c-5.5,4.2-10.7,8.6-16.1,12.9c-0.9,0.7-1.8,1.3-2.8,1.9c-0.6-0.5-1.1-0.8-1.5-1.2
	c-6-7.4-12-14.9-18.1-22.3C164.6,240,165.5,239.1,166.8,238.1z M162.8,232.6c-0.7,0.6-1.5,1-2.5,1.7c-0.9-1-1.7-1.7-2.4-2.6
	c-5.4-6.7-10.8-13.4-16.3-20c-1.7-2-1.8-3.3,0.5-5.1c5.5-4.2,10.8-8.5,16-13c2.4-2.1,3.6-1.6,5.4,0.7c5.3,6.8,10.7,13.5,16.2,20.1
	c1.7,2,2,3.2-0.4,5C173.7,223.6,168.3,228.2,162.8,232.6z M193.5,220.8c-1.8-2.2-1.5-3.3,0.6-5c5.5-4.2,10.7-8.6,16.1-12.9
	c0.9-0.7,1.9-1.2,2.9-1.9c0.7,0.7,1.3,1.2,1.8,1.8c5.7,7,11.2,14,17,20.9c1.9,2.2,1.3,3.5-0.7,5.1c-5.4,4.2-10.8,8.5-16,13
	c-2.1,1.8-3.2,1.8-5-0.5C204.7,234.4,199.1,227.5,193.5,220.8z M257.9,207.1c-5.3,4.1-10.5,8.3-15.6,12.7c-2.2,1.9-3.6,2-5.5-0.4
	c-5.3-6.8-10.8-13.4-16.2-20.1c-0.7-0.8-1.2-1.8-2-2.9c0.9-0.8,1.6-1.5,2.3-2c5.5-4.5,11.1-8.8,16.4-13.4c2.3-2,3.4-1,5,0.9
	c5.3,6.8,10.7,13.5,16.3,20C260.7,204.2,260.1,205.4,257.9,207.1z M262.4,212c0.7-0.6,1.5-1.1,2.5-1.8c0.7,0.6,1.3,1,1.7,1.5
	c5.9,7.3,11.8,14.6,17.7,21.8c1.6,1.9,0.7,2.9-0.8,4.2c-5.5,4.4-11.1,8.8-16.5,13.4c-2.2,1.8-3.3,1.5-5-0.6
	c-5.3-6.8-10.7-13.5-16.3-20.1c-1.9-2.3-1.9-3.6,0.5-5.5C251.8,220.8,257,216.3,262.4,212z M218.4,247.7c5.8-4.7,11.7-9.3,17.3-14.2
	c2.5-2.2,3.6-0.5,5,1.2c5.3,6.6,10.5,13.2,15.9,19.6c2.2,2.6,1.7,4-0.8,5.8c-5.2,3.9-10.2,8-15.2,12.3c-2.4,2.1-3.9,2.1-5.9-0.5
	c-5.1-6.7-10.5-13.1-15.8-19.7c-0.7-0.9-1.4-1.8-2.2-2.9C217.4,248.7,217.9,248.1,218.4,247.7z M243.9,278.4
	c5.7-4.5,11.4-9.1,16.9-13.8c2-1.6,3.1-1.4,4.6,0.6c5.4,6.9,11,13.8,16.6,20.5c1.8,2.1,1.8,3.3-0.5,5c-5.6,4.3-11,8.9-16.6,13.3
	c-0.7,0.6-1.5,1.1-2.2,1.6c-0.7-0.6-1.2-0.9-1.5-1.3c-6-7.4-12-14.9-18.1-22.3C241.8,280.4,242.5,279.5,243.9,278.4z M270.5,260.8
	c-0.6-0.7-1-1.5-1.6-2.4c1-0.9,1.9-1.6,2.7-2.4c5.2-4.2,10.5-8.3,15.5-12.7c2.6-2.2,3.9-1.7,5.8,0.8c5.1,6.6,10.4,13.2,15.8,19.6
	c1.8,2.2,2.2,3.5-0.4,5.4c-5.5,4.2-10.8,8.5-16,13c-2,1.6-3.3,2-5.1-0.3C281.8,274.7,276.1,267.8,270.5,260.8z M297.6,239.3
	c-0.6-0.7-1.2-1.5-1.8-2.4c0.5-0.6,0.9-1.2,1.5-1.7c5.9-4.8,11.9-9.6,17.8-14.5c2-1.7,3-0.4,4.1,1c5.5,6.9,11,13.7,16.7,20.5
	c1.8,2.1,1.6,3.4-0.6,5c-5.4,4.2-10.8,8.5-16,13c-2.4,2.1-3.7,1.4-5.4-0.8C308.5,252.7,303,246,297.6,239.3z M323.4,265.4
	c5.5-4.1,10.7-8.6,16-12.9c0.8-0.7,1.6-1.7,3-1.6c0.4,0.3,0.8,0.6,1.2,1.1c6,7.4,12,14.9,18,22.2c1.8,2.2,0.1,3-1.2,4
	c-5.2,4.2-10.5,8.3-15.5,12.7c-2.6,2.3-4,2.4-6.2-0.5c-5.1-6.7-10.4-13.2-15.8-19.6C321.1,268.6,320.9,267.3,323.4,265.4z
	 M349.3,248.2c-0.6-0.7-1-1.5-1.6-2.2c0.6-0.6,0.9-1,1.4-1.4c6.1-4.9,12.2-9.8,18.2-14.8c1.8-1.5,2.7-0.3,3.7,0.9
	c5.6,7,11.2,14,16.9,20.9c1.5,1.8,1.8,3-0.3,4.6c-5.6,4.3-11,8.8-16.4,13.3c-2,1.7-3.3,1.8-5.1-0.4
	C360.6,262.1,354.9,255.2,349.3,248.2z M362,225.7c-5.5,4.2-10.8,8.5-16,13c-2.3,2-3.4,1.3-5-0.7c-5.3-6.8-10.8-13.4-16.2-20.1
	c-0.7-0.9-1.3-1.8-2.1-2.9c0.9-0.8,1.5-1.5,2.2-2.1c5.6-4.6,11.4-9.1,16.9-13.8c2.3-2,3.3-0.5,4.5,1c5.4,6.7,10.7,13.5,16.3,20.1
	C364.5,222.5,364.3,223.8,362,225.7z M337.3,194.1c-5.5,4.5-11.1,8.8-16.4,13.4c-2.2,1.9-3.4,1.5-5.1-0.6
	c-5.4-6.9-11-13.7-16.6-20.5c-1.5-1.8-1.7-3,0.4-4.6c5.6-4.3,11-8.9,16.5-13.3c0.7-0.6,1.5-1.1,2.5-1.8c0.6,0.5,1.3,0.9,1.8,1.4
	c6,7.4,12,14.9,18.1,22.3C340,192.4,338.5,193.2,337.3,194.1z M310.7,211.1c1.8,2.1,1.7,3.3-0.5,5c-5.6,4.3-11.1,8.8-16.5,13.4
	c-2,1.7-3.1,1.3-4.6-0.6c-5.6-7.1-11.3-14-16.9-21c-0.6-0.7-1-1.5-1.4-2.3c0.6-0.6,0.9-1.1,1.4-1.4c5.9-4.8,11.9-9.6,17.8-14.5
	c2-1.7,2.9-0.5,4.1,0.9C299.5,197.5,305,204.4,310.7,211.1z M285.2,184.9c-5.6,4.3-11,8.8-16.4,13.3c-2.1,1.8-3.3,1.6-5-0.6
	c-5.4-6.9-11-13.7-16.5-20.5c-0.6-0.7-1.1-1.5-1.9-2.4c0.6-0.6,1-1.2,1.6-1.6c5.9-4.8,11.9-9.6,17.7-14.5c1.9-1.6,2.9-0.7,4.1,0.8
	c5.6,7,11.2,14,16.9,20.9C287.4,182.3,287.1,183.4,285.2,184.9z M260.3,153.6c-5.6,4.6-11.3,9.1-16.9,13.8c-2,1.7-3.2,1.1-4.7-0.7
	c-5.5-6.9-11-13.7-16.6-20.5c-1.9-2.2-1.4-3.4,0.7-5c5.4-4.2,10.8-8.5,16-13c2.4-2.1,3.6-1.5,5.4,0.8c5.2,6.6,10.5,13.1,15.8,19.6
	c0.7,0.9,1.4,1.8,2.2,2.9C261.5,152.3,261,153,260.3,153.6z M233.7,171c1.6,1.9,1.5,3-0.5,4.6c-5.7,4.4-11.4,9-16.9,13.7
	c-2.1,1.8-3.2,0.9-4.5-0.8c-5.5-6.9-11-13.6-16.5-20.5c-0.7-0.9-1.2-1.9-1.8-2.8c0.7-0.7,1.3-1.2,1.9-1.7
	c5.6-4.6,11.3-9.1,16.8-13.8c1.8-1.5,3-1.6,4.6,0.4C222.3,157.2,227.9,164.1,233.7,171z M206.7,192.6c1.9,2.2,1.5,3.4-0.6,5
	c-5.6,4.3-11,8.8-16.4,13.3c-1.9,1.6-3,1.5-4.6-0.5c-5.5-7.1-11.2-14-16.8-20.9c-0.6-0.7-1.1-1.5-1.6-2.2c0.6-0.7,0.9-1.2,1.3-1.5
	c6.1-4.9,12.2-9.8,18.2-14.8c2.1-1.8,3-0.1,4,1.2C195.6,179,201,185.9,206.7,192.6z M180.7,166.7c-5.5,4.1-10.9,8.5-16.1,13
	c-2.2,1.9-3.4,1.4-5-0.6c-5.4-6.9-11-13.7-16.6-20.5c-0.6-0.7-1.1-1.6-1.7-2.4c0.6-0.6,1-1.2,1.6-1.7c5.8-4.7,11.6-9.3,17.3-14.1
	c2.1-1.8,3.2-0.8,4.6,0.9c5.4,6.7,10.8,13.4,16.3,20C183.1,163.4,183.2,164.8,180.7,166.7z M154.6,183.3c1.8,2.1,1.8,3.3-0.5,5
	c-5.6,4.3-11.1,8.7-16.4,13.3c-2.3,2-3.4,1.1-4.9-0.8c-5.3-6.7-10.8-13.4-16.2-20c-0.7-0.9-1.3-1.8-2.1-2.9c0.6-0.7,1.1-1.2,1.7-1.7
	c5.9-4.8,11.9-9.6,17.8-14.4c2.1-1.8,3-0.2,4,1.1C143.5,169.7,148.9,176.6,154.6,183.3z M136.1,215.5c5.6,7,11.2,14,16.9,20.9
	c1.6,1.9,1.4,3.1-0.5,4.6c-5.6,4.3-11.1,8.7-16.4,13.3c-2.2,1.9-3.3,1.5-5-0.6c-5.4-6.9-11-13.7-16.5-20.5c-0.7-0.8-1.2-1.8-1.8-2.7
	c0.6-0.6,1-1,1.4-1.4c5.9-4.8,11.9-9.6,17.7-14.4C133.8,213.2,134.9,213.9,136.1,215.5z M140.1,259.6c5.6-4.3,11-8.8,16.5-13.2
	c0.7-0.6,1.5-1.1,2.4-1.8c0.6,0.5,1.3,0.9,1.7,1.5c6,7.4,12,14.8,18,22.2c1.8,2.2-0.2,3-1.4,4c-5.3,4.4-10.7,8.6-15.9,13
	c-1.9,1.6-3.2,2.1-5.1-0.2c-5.5-7.1-11.1-14-16.9-20.9C137.8,262.1,138.2,261.1,140.1,259.6z M164.7,291.2
	c5.9-4.8,11.9-9.6,17.8-14.5c2.1-1.8,2.9-0.2,4,1.1c5.5,6.8,11,13.7,16.6,20.5c1.9,2.2,1.4,3.4-0.7,5c-5.4,4.2-10.8,8.6-16,13
	c-2,1.7-3.2,1.9-5-0.4c-5.4-6.9-11-13.7-16.5-20.5c-0.6-0.7-1.1-1.5-1.8-2.5C163.8,292.3,164.2,291.7,164.7,291.2z M191.9,273.7
	c-0.7-0.8-1.2-1.8-1.9-2.9c0.9-0.8,1.6-1.4,2.3-2c5.5-4.5,11-8.9,16.4-13.4c1.9-1.6,3-1.5,4.6,0.5c5.4,6.9,10.9,13.8,16.6,20.5
	c2.1,2.4,1.5,3.7-0.8,5.4c-5.3,4.1-10.5,8.3-15.6,12.6c-2.3,2-3.6,1.8-5.5-0.6C202.8,287,197.3,280.4,191.9,273.7z M216.8,300.5
	c5.9-4.8,11.9-9.6,17.8-14.5c1.7-1.4,2.5-0.8,3.6,0.6c5.6,7,11.2,14,17,20.9c1.7,2.1,1.7,3.4-0.5,5.1c-5.5,4.2-10.8,8.5-16,13
	c-2.5,2.1-3.7,1.3-5.4-0.9c-5.2-6.6-10.6-13.1-15.9-19.6c-0.7-0.9-1.3-1.8-2.1-2.9C215.8,301.5,216.2,300.9,216.8,300.5z
	 M242.3,331.1c5.7-4.5,11.3-9,16.9-13.7c2-1.7,3.1-1.1,4.6,0.7c5.4,6.9,11,13.7,16.6,20.4c1.7,2,1.9,3.2-0.4,5
	c-5.6,4.3-11,8.8-16.5,13.2c-0.7,0.6-1.5,1.1-2.4,1.7c-0.6-0.6-1.2-1-1.7-1.6c-5.9-7.3-11.7-14.6-17.7-21.8
	C240.1,333.3,240.6,332.4,242.3,331.1z M269,313.9c-0.6-0.7-1.1-1.5-1.8-2.5c0.7-0.7,1.3-1.5,2-2.1c5.5-4.5,11-8.8,16.4-13.4
	c2.1-1.8,3.3-1.7,5.1,0.5c5.4,6.9,10.9,13.8,16.6,20.5c1.9,2.3,1.2,3.5-0.8,5c-5.4,4.2-10.8,8.6-16,13c-2.1,1.8-3.4,1.6-5-0.5
	C280.1,327.5,274.5,320.7,269,313.9z M295.7,292.1c-1.6-1.9-1.5-3.1,0.5-4.6c5.7-4.5,11.3-9.1,16.9-13.7c0.7-0.6,1.5-1,2.3-1.4
	c0.6,0.6,1.1,0.9,1.4,1.4c6,7.4,12,14.9,18,22.2c1.4,1.7,0.7,2.5-0.6,3.6c-5.8,4.6-11.6,9.3-17.3,14c-1.8,1.5-2.9,1-4.2-0.7
	C307,306,301.4,299,295.7,292.1z M320.9,318.9c5.8-4.7,11.7-9.3,17.4-14.1c2.3-2,3.3-0.5,4.5,1.1c5.4,6.7,10.7,13.5,16.3,20.1
	c2,2.4,1.7,3.7-0.6,5.5c-5.3,4.1-10.5,8.3-15.6,12.6c-2.1,1.8-3.5,2.2-5.5-0.4c-5.4-7-11-13.7-16.6-20.6c-0.6-0.7-1.1-1.5-1.6-2.4
	C319.9,320,320.4,319.4,320.9,318.9z M348.1,301.9c-1.9-2.3-1.9-3.7,0.5-5.5c5.3-4.1,10.4-8.4,15.6-12.6c0.9-0.7,1.8-1.3,2.9-2.1
	c0.7,0.6,1.4,1,1.8,1.5c5.9,7.3,11.7,14.6,17.7,21.8c1.9,2.4,0.2,3.2-1.3,4.5c-5.2,4.2-10.5,8.2-15.5,12.7c-2.6,2.3-3.9,1.7-5.8-0.7
	C358.8,314.8,353.6,308.3,348.1,301.9z M374.7,279.7c-0.6-0.7-1.1-1.5-1.8-2.4c0.6-0.6,1-1.3,1.5-1.7c5.9-4.8,11.9-9.5,17.8-14.4
	c2-1.7,2.9-0.5,4.1,0.9c5.6,7,11.2,14,16.9,20.9c1.7,2,1.4,3-0.5,4.5c-5.6,4.3-11.1,8.8-16.4,13.3c-2.1,1.8-3.3,1.6-5-0.5
	C385.9,293.3,380.3,286.5,374.7,279.7z M392.9,247.2c-5.3-6.7-10.8-13.4-16.3-20.1c-1.6-1.9-2.1-3.2,0.3-5c5.6-4.3,11-8.9,16.5-13.3
	c0.7-0.6,1.5-1.1,2.4-1.7c0.7,0.6,1.3,1.1,1.8,1.6c5.9,7.3,11.7,14.6,17.7,21.8c1.7,2.1,0.4,3-1,4.1c-5.5,4.4-11.1,8.8-16.5,13.4
	C395.6,250,394.4,249.1,392.9,247.2z M389.2,203.6c-5.6,4.3-11.1,8.7-16.4,13.3c-2.2,1.9-3.4,1.3-5-0.7c-5.3-6.8-10.7-13.4-16.2-20
	c-1.8-2.2-2.2-3.5,0.4-5.5c5.5-4.1,10.7-8.6,16.1-12.9c0.8-0.7,1.8-1.2,2.9-1.9c0.9,1.1,1.7,1.9,2.4,2.7c5.4,6.7,10.7,13.4,16.2,20
	C391.3,200.7,391.4,201.9,389.2,203.6z M364.2,172.4c-5.7,4.5-11.3,9-16.9,13.7c-2,1.7-3.1,1.1-4.5-0.7
	c-5.4-6.9-10.9-13.7-16.6-20.4c-1.7-2-1.9-3.2,0.4-5c5.6-4.3,11-8.8,16.5-13.3c0.7-0.6,1.5-1.1,2.5-1.7c0.7,0.6,1.2,1.1,1.7,1.6
	c5.9,7.3,11.7,14.6,17.7,21.7C366.5,170.2,365.8,171.1,364.2,172.4z M339.1,141.3c-5.6,4.3-11.1,8.8-16.5,13.4
	c-2.2,1.8-3.4,1.5-5.1-0.6c-5.4-6.9-11-13.7-16.6-20.6c-0.6-0.7-1-1.6-1.6-2.5c0.6-0.6,1.1-1.2,1.7-1.7c5.8-4.7,11.7-9.3,17.4-14.1
	c2.3-1.9,3.2-0.5,4.5,1.1c5.5,6.9,11,13.8,16.6,20.5C341.1,138.7,341.1,139.8,339.1,141.3z M312.5,158.4c1.8,2.2,1.4,3.4-0.7,5.1
	c-5.4,4.2-10.7,8.7-16.1,13c-0.9,0.7-1.8,1.2-2.7,1.8c-0.6-0.6-1.1-0.9-1.4-1.3c-6-7.4-12-14.9-18.1-22.3c-1.8-2.2,0.1-3,1.4-4
	c5.3-4.4,10.8-8.6,16-13.1c2-1.7,3.3-1.9,5,0.4C301.3,144.8,306.8,151.6,312.5,158.4z M286.7,132.4c-5.5,4.1-10.8,8.5-16,12.9
	c-2,1.6-3.2,2-5-0.3c-5.5-7.1-11.2-14-16.8-20.9c-0.6-0.7-1-1.5-1.5-2.4c0.8-0.7,1.3-1.3,1.9-1.7c5.8-4.7,11.6-9.3,17.3-14.1
	c2.4-2,3.2-0.4,4.4,1.1c5.4,6.7,10.7,13.4,16.2,20C288.8,129.1,289.2,130.4,286.7,132.4z M261.4,101.4c-5.5,4.1-10.8,8.5-16,12.9
	c-2.1,1.8-3.3,1.7-4.9-0.4c-5.4-6.9-11-13.7-16.5-20.5c-0.7-0.8-1.2-1.8-1.9-2.8c0.8-0.7,1.3-1.3,1.9-1.7c5.6-4.6,11.3-9,16.8-13.7
	c2.3-1.9,3.5-1.1,5,0.8c5.3,6.7,10.7,13.4,16.2,20C263.9,98.3,263.8,99.6,261.4,101.4z M235.1,117.8c2.1,2.5,1.5,3.7-0.7,5.4
	c-5.4,4.2-10.8,8.5-16,13c-2.1,1.8-3.3,1.5-5-0.6c-5.4-6.9-11-13.7-16.5-20.5c-0.6-0.7-1.1-1.5-1.8-2.5c0.6-0.6,1-1.2,1.6-1.7
	c5.9-4.8,11.9-9.6,17.7-14.5c2.5-2.1,3.3,0,4.4,1.4C224.3,104.5,229.5,111.3,235.1,117.8z M208.8,140.3c1.5,1.8,1.1,2.8-0.6,4.1
	c-5.7,4.5-11.3,9-16.9,13.7c-2,1.7-3.1,1.3-4.6-0.6c-5.6-7-11.3-13.9-16.9-20.9c-0.6-0.7-1-1.5-1.5-2.3c0.6-0.7,0.9-1.2,1.3-1.5
	c6.1-4.9,12.2-9.8,18.2-14.8c1.8-1.5,2.6-0.2,3.6,1C197.3,126.1,203,133.3,208.8,140.3z M184.5,111.9c-6.5,5.5-13.2,10.9-19.9,16.3
	c-0.1,0.1-0.3,0.2-0.7,0.3c-0.5-0.4-1.1-0.8-1.6-1.3c-6-7.4-12-14.8-18.1-22.2c-1.4-1.7-0.5-2.6,0.8-3.7c5.7-4.5,11.3-9,16.9-13.7
	c1.9-1.6,3.1-1.5,4.6,0.5c5.6,7,11.3,13.9,16.9,20.9C184.1,109.8,185.5,111,184.5,111.9z M156.3,130.4c1.7,2,2,3.2-0.3,5
	c-5.6,4.3-11,8.8-16.5,13.2c-0.7,0.6-1.5,1.1-2.4,1.8c-0.7-0.6-1.2-1-1.7-1.6c-5.9-7.2-11.7-14.6-17.7-21.7
	c-1.9-2.3-0.4-3.3,1.1-4.5c5.3-4.3,10.8-8.5,15.9-13c2.4-2.1,3.7-1.4,5.4,0.8C145.4,117.1,150.8,123.8,156.3,130.4z M129.8,152.7
	c1.4,1.7,1.4,2.7-0.4,4.1c-5.7,4.5-11.4,9-16.9,13.7c-1.9,1.6-3.1,1.5-4.6-0.5c-5.4-6.9-11-13.7-16.5-20.6c-0.7-0.8-1.8-1.6-1.4-3.2
	c0.4-0.4,0.9-1,1.4-1.4c5.8-4.7,11.6-9.4,17.4-14.1c1.6-1.3,2.6-0.9,3.8,0.6C118.2,138.5,124,145.6,129.8,152.7z M111,184.5
	c5.6,7,11.2,14,17,20.9c1.6,2,1.3,3-0.6,4.5c-5.6,4.3-11.1,8.7-16.4,13.3c-2.2,1.9-3.3,1.6-5-0.6c-5.4-6.9-11-13.7-16.5-20.5
	c-0.6-0.7-1.1-1.5-1.8-2.5c0.6-0.6,1-1.2,1.6-1.6c5.9-4.8,11.9-9.5,17.7-14.5C109,181.8,109.9,183.1,111,184.5z M109.1,237.1
	c5.7,7.1,11.4,14.3,17.3,21.3c1.5,1.8,1.2,2.8-0.5,4.1c-5.7,4.5-11.3,9-16.9,13.7c-1.9,1.6-3,1.5-4.6-0.5
	c-5.5-7-11.2-13.9-16.9-20.9c-0.6-0.7-1.1-1.5-1.6-2.3c0.5-0.6,0.8-1.1,1.3-1.5c6.1-4.9,12.1-9.8,18.2-14.8
	C107.1,234.8,108.1,235.8,109.1,237.1z M112.6,282c5.9-4.8,11.9-9.6,17.8-14.5c2-1.6,3-0.5,4.2,1c5.6,7,11.2,14,17,20.9
	c1.4,1.7,1.4,2.7-0.4,4.1c-5.7,4.5-11.4,9-16.9,13.7c-1.9,1.6-3.1,1.4-4.6-0.5c-5.4-6.9-11-13.7-16.5-20.5c-0.7-0.8-1.2-1.8-1.8-2.7
	C111.8,282.9,112.1,282.4,112.6,282z M137.6,313.1c6.1-4.9,12.2-9.8,18.3-14.8c1.9-1.5,2.6-0.2,3.6,1c5.6,7,11.2,14,17,20.9
	c1.7,2,1.3,3.2-0.6,4.6c-5.6,4.4-11.1,8.8-16.5,13.3c-1.8,1.5-3,1.7-4.6-0.3c-5.5-7.1-11.3-14-16.9-21c-0.6-0.7-1-1.5-1.6-2.2
	C136.9,314,137.2,313.5,137.6,313.1z M162.9,344.1c5.9-4.8,11.9-9.5,17.7-14.4c2-1.7,2.9-0.6,4.1,0.9c5.6,7,11.2,14,16.9,20.9
	c1.7,2,1.3,3.1-0.6,4.6c-5.6,4.3-11.1,8.7-16.4,13.3c-2.1,1.8-3.3,1.6-4.9-0.6c-5.4-6.9-11-13.7-16.5-20.5c-0.6-0.7-1.1-1.5-1.8-2.5
	C161.9,345.1,162.3,344.5,162.9,344.1z M189.4,325.6c-1.4-1.7-0.6-2.5,0.7-3.6c5.7-4.5,11.3-9,16.9-13.7c1.8-1.5,3-1.7,4.6,0.4
	c5.5,7,11.2,14,16.9,20.9c1.6,1.9,1.5,3-0.5,4.6c-5.7,4.4-11.3,9.1-16.9,13.6c-0.7,0.5-1.5,1-2.2,1.5c-0.7-0.6-1.2-1-1.5-1.4
	C201.4,340.4,195.4,333,189.4,325.6z M215.8,352.6c5.6-4.3,11-8.8,16.5-13.3c0.7-0.6,1.5-1.1,2.2-1.6c0.6,0.5,1.1,0.8,1.4,1.2
	c6.1,7.5,12.2,15.1,18.4,22.7c1.6,2-0.2,2.6-1.2,3.5c-5.5,4.5-11,8.8-16.4,13.4c-2.1,1.8-3.3,1.7-5-0.5
	c-5.4-6.9-10.9-13.8-16.6-20.4C213.3,355.3,213.7,354.2,215.8,352.6z M240.1,384.4c5.9-4.8,11.9-9.6,17.8-14.5
	c2.1-1.8,3-0.1,4.1,1.2c5.5,6.8,11,13.8,16.7,20.5c2,2.3,1.2,3.4-0.8,5c-5.4,4.3-10.8,8.6-16,13c-2.1,1.8-3.3,1.7-5-0.5
	c-5.4-6.9-11-13.7-16.6-20.6c-0.6-0.7-1.1-1.5-1.7-2.5C239.2,385.4,239.6,384.8,240.1,384.4z M267.1,366.7c-1.6-1.9-1.6-3.1,0.4-4.6
	c5.6-4.3,11.1-8.8,16.5-13.4c1.7-1.4,3-2,4.6,0.2c5.6,7.2,11.4,14.4,17.3,21.5c1.2,1.5,1.4,2.4-0.2,3.7c-5.9,4.6-11.6,9.4-17.4,14
	c-0.6,0.5-1.2,0.8-1.7,1.2c-1.6,0-2.1-1.2-2.8-2C278.2,380.4,272.7,373.5,267.1,366.7z M294.3,345.3c-0.7-0.9-1.3-1.8-2-2.7
	c0.5-0.7,0.8-1.2,1.2-1.5c6.1-4.9,12.2-9.8,18.2-14.8c2.2-1.8,3,0,4,1.2c5.5,6.8,11,13.7,16.6,20.4c1.8,2.1,1.6,3.3-0.5,4.9
	c-5.4,4.2-10.8,8.5-16,13c-2.2,1.9-3.6,1.9-5.4-0.5C305.2,358.5,299.7,352,294.3,345.3z M319.9,371.2c5.5-4.5,11.1-8.8,16.4-13.4
	c2.5-2.2,3.5-0.6,4.9,1.1c12.4,15.3,24.7,30.6,37.2,45.8c2,2.4,1.5,3.7-0.8,5.3c-5.7,3.9-11.6,7.4-17.6,10.7c-2.5,1.3-3.9,1-5.7-1.2
	c-11.4-14.3-23-28.6-34.6-42.8c-0.8-1-2-1.9-1.9-3.6C318.5,372.5,319.1,371.8,319.9,371.2z M346.3,354.5c-1.5-1.9-2.2-3.2,0.3-5
	c5.5-4.1,10.8-8.5,16-13c2.2-1.9,3.6-1.9,5.5,0.5c11.6,14.5,23.3,28.9,35,43.2c1.6,2,1.9,3.3,0.1,5.3c-4.6,5.4-9.3,10.7-14.5,15.4
	c-0.8,0.7-1.8,1.3-2.8,2c-0.8-0.9-1.5-1.5-2.1-2.3C371.3,385.4,358.8,370,346.3,354.5z M373.4,333c-0.7-0.9-1.4-1.8-2.2-2.9
	c0.6-0.6,1-1.3,1.5-1.7c5.9-4.8,11.9-9.6,17.7-14.5c2.5-2.1,3.3,0.1,4.4,1.4c5.1,6.2,10.6,12.1,15,18.8c4.1,6.2,13.4,10.1,11.9,18.7
	c-1.3,7.6-6.3,14.2-10.2,20.9c-1.8,3.1-2.9,3.1-5.1,0.3C395.6,360.2,384.5,346.6,373.4,333z M399.3,310.1c-1.7-2.1-0.3-3,1.1-4.1
	c5.5-4.4,11.1-8.8,16.5-13.4c2.3-2,3.4-1.1,4.9,0.9c2.8,3.7,5.7,7.2,8.7,10.7c1.8,2.1,3,4.1,2.5,7.2c-1.6,10.2-3.4,20.3-7.1,31.3
	C416.7,331.3,408,320.7,399.3,310.1z M432.7,269.3c0.2,4.7-6.2,6.1-9.2,9.4c-0.1,0.1-0.3,0.2-0.4,0.4c-2,2.2-3.3,1.4-4.9-0.6
	c-5.4-6.9-10.9-13.8-16.6-20.5c-1.9-2.3-1.3-3.4,0.8-4.9c5.4-4.2,10.7-8.6,16.1-12.9c0.9-0.7,1.5-1.8,4.2-1.6
	c1.2,1.8,2.8,4.4,4.7,6.7C432.8,252.3,432.3,261.1,432.7,269.3z M413.1,196.7c4,8.9,7.5,18,10.5,27.2c0.4,1.2,1,2.7-0.7,3.5
	c-1.4,0.7-2-0.7-2.7-1.6c-5.7-6.9-11.3-13.9-17-20.9c-0.6-0.7-1.1-1.5-2.6-3.6c3-1.9,6-3.6,8.7-5.7
	C411.4,194.3,412.2,194.6,413.1,196.7z M394.1,162.2c3.9,6.8,8,13.4,11.8,20.2c1,1.8,3.6,3.9,1.6,6.1c-2.9,3.2-6.5,5.8-9.3,8.3
	c-2.4-0.6-3.1-1.8-3.9-2.8c-3.2-4-6.5-8-9.7-12c-2.7-3.4-7.5-6.9-7.5-10.3c0-3.6,6-5.7,9.2-8.6c0.7-0.6,1.5-1.1,2.2-1.8
	C390.9,158.6,392.5,159.4,394.1,162.2z M369.3,130c5.4,6.7,10.8,13.4,16.3,20c1.8,2.2,2,3.7-0.5,5.5c-3.6,2.5-7,5.3-10.3,8.3
	c-2.3,2.1-3.6,1.6-5.4-0.7c-5.3-6.8-10.8-13.4-16.3-20.1c-0.7-0.9-1.2-1.9-1.8-2.8c0.6-0.6,0.9-1.1,1.4-1.4
	c4.1-3.4,8.3-6.8,12.4-10.2C367.3,126.9,368.3,128.7,369.3,130z M341,102.4c3.9,3.7,8,7,11.9,10.6c9.8,9,9.8,9-0.4,17.3
	c-1.8,1.4-3.2,3.3-4.9,5.1c-1.8-1.8-2.7-2.7-3.5-3.7c-3.9-4.7-7.7-9.5-11.5-14.2c-6.8-8.5-6.6-8.3,1.7-15.3
	C337,100,338.6,100.2,341,102.4z M301.8,77.4c1.2-1.3,2.4-0.3,3.6,0.3c9.1,5.2,17.9,10.9,27.2,18.1c-3,2.2-5.8,3.9-8.2,6
	c-2.1,1.8-3.4,1.5-5-0.6c-5.4-6.9-11.1-13.7-16.5-20.5C302,79.9,300.3,78.9,301.8,77.4z M297.4,84.8c5.5,7.1,11.1,14.1,16.9,20.9
	c1.7,2,1.5,3-0.5,4.5c-5.6,4.3-11.1,8.8-16.4,13.3c-2.1,1.7-3.2,1.8-5-0.4c-5.4-6.9-11-13.7-16.5-20.5c-0.6-0.7-1.1-1.5-1.6-2.1
	c0.1-1.7,1.3-2.1,2.1-2.8c5.4-4.5,11-8.9,16.4-13.4C294.7,82.9,295.8,82.8,297.4,84.8z M262.6,58.8c9.6,3.8,19.9,5.2,25.9,14.9
	c1.7,2.8,2.5,4-0.6,6.2c-5.1,3.7-10,7.7-14.6,11.9c-2.7,2.5-4.4,2.6-6.7-0.5c-4.3-5.8-8.7-11.6-13.7-16.8c-4-4.3-3.9-7.1,1.1-9.9
	C257,62.7,259,59.2,262.6,58.8z M252.2,56.7c-9,7.8-6.3,9.7-16.1-3.9C243,53.2,248.7,54.6,252.2,56.7z M198.4,58.2
	c5.8-4.5,10.6-11.2,19.6-7.8c3.1,0.6,6.8-0.7,9.3,2.8c3,4.1,6.3,8.1,9.7,12c1.9,2.1,1.5,3.4-0.6,5c-5.6,4.3-11,8.8-16.5,13.3
	c-1.6,1.3-2.6,1.8-4.1-0.1c-5.7-7.2-11.5-14.3-17.3-21.4C197.5,60.7,196.5,59.6,198.4,58.2z M193.4,66.3c5.4,6.9,11,13.7,16.6,20.5
	c1.6,2,2,3.2-0.4,5c-5.6,4.3-11,8.9-16.5,13.3c-0.7,0.6-1.6,1-2.4,1.6c-0.7-0.6-1.3-1.1-1.7-1.7c-5.8-7.1-11.5-14.3-17.4-21.4
	c-1.8-2.1-1-3.2,0.8-4.6c5.5-4.4,11.1-8.8,16.5-13.4C190.8,64.1,191.9,64.4,193.4,66.3z M178.9,52.2c4.1-0.8,5.2,2.7,6.8,5
	c2.1,2.7-1.3,3.4-2.6,4.5c-4.9,4.2-10.1,8.2-15.1,12.3c-1.7,1.4-2.8,2.1-4.6-0.2c-3.5-4.5-7.4-8.7-11.7-13.8
	C161.5,56.1,170.1,53.8,178.9,52.2z M124.3,75.3c6-4.4,12.4-8.2,19.1-11.5c2-1,3.1-0.4,4.3,1.1c3.4,4.4,6.9,8.6,10.5,12.9
	c1.5,1.8,1.8,3-0.3,4.6c-5.7,4.4-11.4,9-16.9,13.7c-2.1,1.8-3.2,1.1-4.6-0.7c-4.1-5.3-8.4-10.4-12.6-15.6c-0.6-0.7-1.1-1.5-1.8-2.5
	C122.9,76.4,123.5,75.8,124.3,75.3z M99.2,99.4c4.5-5.7,9.5-10.9,14.8-15.9c1.8-1.7,3-1.8,4.6,0.3c4.2,5.4,8.5,10.8,12.9,16
	c1.4,1.7,1.4,2.8-0.3,4.2c-5.8,4.6-11.6,9.3-17.4,13.9c-0.6,0.5-1.2,0.8-1.9,1.1c-0.6-0.4-1.1-0.7-1.5-1.1c-4-4.9-7.9-9.8-11.9-14.6
	C97.2,101.7,98.3,100.6,99.2,99.4z M80.2,132.1c3.5-8.2,7.4-16.3,13.6-25c3.8,5.1,6.9,9.7,10.5,13.9c2.1,2.5,1.4,3.7-0.8,5.4
	c-5,3.8-9.7,8-14.8,11.8c-1.4,1.1-2.8,4.2-5.1,1.6C81.8,137.7,78.5,136,80.2,132.1z M80.8,153.3c2.3-2,3.6-1.9,5.5,0.5
	c5.2,6.8,10.7,13.5,16.2,20c2,2.4,1.7,3.7-0.7,5.4c-3.2,2.3-6.3,5-9.4,7.5c-9.4,7.5-9.3,7.5-17.1-2c-3.6-4.4-7.9-8.6-4.7-15.2
	C68.8,160.9,75.7,157.7,80.8,153.3z M68.4,196.7c0.1-2.7-0.6-5.5,0.4-8.4c11.7,12.8,10.2,9,0.2,16.8C68,202.1,68.4,199.4,68.4,196.7
	z M70.2,224.5c-1.6-7.5-0.3-12.9,6.6-16.6c1.8-1,3.3-2.5,5-3.8c0.8,0.7,1.4,1.2,1.8,1.8c5.9,7.3,11.7,14.6,17.7,21.8
	c2.1,2.5,0,3.3-1.4,4.4c-5.2,4.2-10.5,8.3-15.5,12.7c-2.6,2.3-3.7,1.4-5.9-0.7C73.1,238.5,71.7,231.7,70.2,224.5z M92.9,289.1
	c-1.5,1.4-2.5,1.2-3.4-0.7c-4.2-9.2-7.8-18.6-10.9-28.2c-0.5-1.6,0-2.6,1.9-3c0.8,0.9,1.8,1.8,2.6,2.8c4.1,5,8.2,10,12.2,15.1
	c6.5,7.9,6.5,7.9-2,13.7C93.2,288.9,93.1,289,92.9,289.1z M110.8,325.8c-0.8-1.1-1.6-2-2.2-2.9c-3.2-5.2-6.5-10.4-9.5-15.7
	c-5.8-10.2-5.7-10.1,3.6-17.3c2.6-2.1,3.8-1.2,5.4,0.9c5.2,6.6,10.5,13.2,15.9,19.6c1.8,2.2,2.1,3.6-0.4,5.5
	c-3.6,2.6-6.9,5.5-10.3,8.3C112.5,324.7,111.7,325.2,110.8,325.8z M133.3,355.2c-5.6-7-11.3-14-16.9-21c-0.6-0.7-0.9-1.6-1.4-2.4
	c0.8-0.7,1.3-1.3,1.8-1.8c3.8-3.1,7.8-6.2,11.6-9.4c1.8-1.5,2.9-1.1,4.2,0.5c5.6,7,11.2,14,17,20.9c1.6,1.9,1.6,3-0.4,4.6
	c-3.8,2.9-7.5,5.9-11.1,9C136.1,357.3,134.8,357,133.3,355.2z M162.4,383.1c-6.6-6.1-13.2-12.2-19.9-18.2c-1.8-1.6-2-2.9,0.1-4.5
	c3.7-2.8,7.1-5.8,10.7-8.6c0.7-0.6,1.6-1.1,2.4-1.6c0.9,1,1.7,1.8,2.4,2.6c3.9,4.7,7.7,9.5,11.6,14.3c7.7,9.5,7.6,9.4-2.4,16.2
	C165.5,384.5,164.2,384.8,162.4,383.1z M200.8,407.3c-1.3,1.7-2.8,0.3-4-0.4c-8.1-4.7-16-9.7-23.5-15.4c-0.9-0.7-2.1-1.1-2.2-3
	c1.8-1.4,4.1-2.8,6-4.7c2.6-2.5,4.3-2.7,6.7,0.5c4.9,6.6,10.3,12.8,15.4,19.3C200.1,404.6,202.2,405.6,200.8,407.3z M207.2,402
	c-0.7-0.6-1.3-1.1-1.8-1.6c-5.9-7.3-11.7-14.6-17.7-21.8c-1.4-1.7-0.8-2.6,0.6-3.7c5.7-4.5,11.3-9.1,16.9-13.8
	c1.9-1.6,3-1.5,4.6,0.5c5.5,7.1,11.2,14.1,17,21c1.7,2.1,1.1,3.2-0.7,4.6c-5.6,4.4-11,8.9-16.5,13.3
	C208.9,401,208.1,401.5,207.2,402z M238.8,425.7c-3.3-1.2-6.8-2.8-10.5-3.7c-7-1.7-11.2-6.8-15.3-12.1c-1.4-1.8-1.2-2.8,0.5-4.1
	c5.7-4.5,11.4-9,16.9-13.7c2-1.7,3.1-1.4,4.6,0.6c5.5,7,11.2,14,16.9,20.9c1.7,2,1.2,3.2-0.7,4.5c-1.7,1.2-3.2,2.7-4.9,3.9
	C244.1,423.6,242.6,426.5,238.8,425.7z M265.9,432.1c-5.4-0.2-10.6-1.5-15.8-3.3c7-8.5,7.2-8.5,13.5-0.8c0.9,1.1,2.4,1.8,3.6,2.7
	C266.8,431.1,266.4,431.6,265.9,432.1z M279.6,434.4c-1.7-0.1-2.8-0.9-3.8-2.2c-3.5-4.3-6.9-8.7-10.5-12.9c-1.4-1.6-1.5-2.7,0.3-4.1
	c5.9-4.6,11.6-9.4,17.4-14.1c1.1-0.9,2.2-1.5,3.4,0c8.7,10.8,17.5,21.5,26.9,33C301.2,435.5,290.4,435.3,279.6,434.4z M348.2,425.8
	c-8.4,3.3-17,5.6-25.9,7.1c-1.6,0.3-2.4-1-3.2-2c-9-11.1-18-22.3-27.1-33.3c-1.8-2.1-1-3.2,0.8-4.5c5.5-4.4,11-8.9,16.4-13.4
	c1.4-1.2,2.5-2.1,4.2-0.1c11.6,14.4,23.3,28.8,34.9,43.2C349.2,423.8,350.5,424.9,348.2,425.8z M353.7,445.1
	c14.2-5.2,29.2-13,43.5-24.7c14.4-11.8,24.4-24.7,31.3-35.5c8.9,46.9,27.8,89.7,51.7,130.9c-0.5,0.6-1,1.1-1.4,1.7
	C440.6,486.6,399.9,460.9,353.7,445.1z M521.3,517.4c-0.5-0.6-1-1.1-1.4-1.7c23.9-41.2,42.8-84,51.7-130.9
	c6.9,10.9,16.9,23.7,31.3,35.5c14.3,11.7,29.3,19.5,43.5,24.7C600.1,460.9,559.4,486.6,521.3,517.4z M677.7,432.9
	c-8.9-1.5-17.5-3.9-25.9-7.1c-2.2-0.9-1-2-0.1-3c11.6-14.4,23.3-28.7,34.9-43.2c1.6-2,2.7-1.1,4.2,0.1c5.4,4.5,10.9,9,16.4,13.4
	c1.7,1.4,2.5,2.4,0.8,4.5c-9.1,11-18,22.2-27.1,33.3C680,431.9,679.3,433.2,677.7,432.9z M720.4,434.4c-10.8,0.9-21.6,1.1-33.6-0.3
	c9.4-11.5,18.1-22.3,26.9-33c1.2-1.5,2.2-0.9,3.4,0c5.8,4.7,11.5,9.5,17.4,14.1c1.9,1.5,1.7,2.5,0.3,4.1c-3.6,4.2-7,8.6-10.5,12.9
	C723.3,433.5,722.1,434.3,720.4,434.4z M734.1,432.1c-0.4-0.5-0.9-0.9-1.3-1.4c1.2-0.9,2.7-1.6,3.6-2.7c6.4-7.7,6.5-7.8,13.5,0.8
	C744.6,430.5,739.5,431.9,734.1,432.1z M786.9,409.9c-4.1,5.3-8.2,10.4-15.3,12.1c-3.7,0.9-7.2,2.5-10.5,3.7
	c-3.8,0.8-5.3-2.2-7.6-3.7c-1.7-1.2-3.2-2.7-4.9-3.9c-1.9-1.3-2.4-2.5-0.7-4.5c5.8-6.9,11.4-13.9,16.9-20.9c1.5-1.9,2.6-2.2,4.6-0.6
	c5.5,4.7,11.2,9.2,16.9,13.7C788.1,407.2,788.3,408.1,786.9,409.9z M792.8,402c-0.9-0.6-1.7-1-2.4-1.6c-5.5-4.4-11-9-16.5-13.3
	c-1.8-1.4-2.4-2.5-0.7-4.6c5.8-6.9,11.4-13.9,17-21c1.6-2,2.7-2.1,4.6-0.5c5.6,4.7,11.2,9.2,16.9,13.8c1.4,1.1,2,2.1,0.6,3.7
	c-5.9,7.2-11.8,14.6-17.7,21.8C794.1,401,793.5,401.4,792.8,402z M826.7,391.5c-7.5,5.6-15.3,10.7-23.5,15.4c-1.2,0.7-2.7,2.1-4,0.4
	c-1.4-1.8,0.7-2.7,1.5-3.8c5.1-6.5,10.5-12.7,15.4-19.3c2.4-3.2,4.1-3,6.7-0.5c1.9,1.8,4.2,3.3,6,4.7
	C828.8,390.5,827.6,390.9,826.7,391.5z M857.4,364.9c-6.7,6-13.3,12.1-19.9,18.2c-1.8,1.7-3.1,1.4-5,0.1c-10-6.8-10.1-6.8-2.4-16.2
	c3.9-4.8,7.7-9.5,11.6-14.3c0.7-0.9,1.5-1.7,2.4-2.6c0.8,0.6,1.7,1,2.4,1.6c3.6,2.9,7.1,5.9,10.7,8.6
	C859.5,362,859.2,363.3,857.4,364.9z M883.6,334.2c-5.6,7-11.3,14-16.9,21c-1.5,1.8-2.7,2.2-4.7,0.5c-3.6-3.1-7.3-6.2-11.1-9
	c-2-1.5-2-2.7-0.4-4.6c5.7-6.9,11.4-13.9,17-20.9c1.3-1.7,2.4-2,4.2-0.5c3.8,3.2,7.7,6.3,11.6,9.4c0.6,0.5,1.1,1,1.8,1.8
	C884.5,332.6,884.1,333.5,883.6,334.2z M900.9,307.2c-3,5.3-6.3,10.5-9.5,15.7c-0.6,1-1.3,1.8-2.2,2.9c-1-0.6-1.8-1.1-2.5-1.6
	c-3.4-2.8-6.7-5.7-10.3-8.3c-2.6-1.9-2.3-3.3-0.4-5.5c5.4-6.5,10.7-13,15.9-19.6c1.6-2.1,2.8-2.9,5.4-0.9
	C906.6,297.1,906.8,297,900.9,307.2z M921.3,260.2c-3,9.6-6.7,19-10.9,28.2c-0.9,1.9-1.9,2.1-3.4,0.7c-0.1-0.1-0.3-0.2-0.4-0.4
	c-8.4-5.7-8.4-5.7-2-13.7c4.1-5,8.1-10.1,12.2-15.1c0.8-1,1.8-1.9,2.6-2.8C921.4,257.7,921.8,258.6,921.3,260.2z M929.8,224.5
	c-1.5,7.2-2.9,14-8.4,19.4c-2.2,2.1-3.3,3-5.9,0.7c-5-4.4-10.3-8.4-15.5-12.7c-1.4-1.1-3.4-1.9-1.4-4.4c6-7.2,11.8-14.5,17.7-21.8
	c0.5-0.6,1.1-1,1.8-1.8c1.7,1.3,3.2,2.9,5,3.8C930,211.7,931.3,217.1,929.8,224.5z M930.9,205.1c-10-7.7-11.5-4,0.2-16.8
	c1.1,2.9,0.4,5.7,0.4,8.4C931.6,199.4,932,202.1,930.9,205.1z"/>
</svg>
